<svg width="72" height="89" viewBox="0 0 72 89" fill="none" xmlns="http://www.w3.org/2000/svg">
<g filter="url(#filter0_d_77_1131)">
<path d="M13.2861 5.75H54.7139C56.7905 5.75 58.5508 6.48468 60.0342 7.97656C61.5177 9.46857 62.2499 11.2406 62.25 13.333V78.8594L34.2969 66.8115L34 66.6836L33.7031 66.8115L5.75 78.8594V13.333C5.75008 11.2406 6.48234 9.46857 7.96582 7.97656C9.44923 6.48468 11.2095 5.75 13.2861 5.75ZM12.5361 68.4336L13.583 67.9805L34 59.1494L54.417 67.9805L55.4639 68.4336V12.583H12.5361V68.4336ZM41.457 22.417C43.7376 22.417 45.6884 23.2357 47.3467 24.9033C49.005 26.5712 49.8212 28.5354 49.8213 30.833C49.8213 32.0727 49.6275 33.2188 49.2451 34.2764C48.8678 35.3201 48.1234 36.5872 46.9727 38.085C45.8295 39.5728 44.1833 41.3674 42.0215 43.4727C39.9576 45.4825 37.2817 48.0115 33.9951 51.0625C30.5795 47.9438 27.857 45.3816 25.8271 43.373C23.6991 41.2673 22.0679 39.4708 20.9229 37.9805C19.7713 36.4816 19.0499 35.2366 18.708 34.2363C18.3581 33.2124 18.1787 32.0799 18.1787 30.833C18.1788 28.5354 18.995 26.5712 20.6533 24.9033C22.3116 23.2357 24.2624 22.417 26.543 22.417C27.9619 22.417 29.2717 22.692 30.4814 23.2363C31.6933 23.7816 32.6649 24.5262 33.4131 25.4668L34 26.2051L34.5869 25.4668C35.3318 24.5304 36.317 23.7857 37.5635 23.2393C38.8163 22.69 40.1122 22.417 41.457 22.417Z" stroke="#FAC71E" stroke-width="1.5" shape-rendering="crispEdges"/>
</g>
<defs>
<filter id="filter0_d_77_1131" x="0" y="0" width="72" height="89" filterUnits="userSpaceOnUse" color-interpolation-filters="sRGB">
<feFlood flood-opacity="0" result="BackgroundImageFix"/>
<feColorMatrix in="SourceAlpha" type="matrix" values="0 0 0 0 0 0 0 0 0 0 0 0 0 0 0 0 0 0 127 0" result="hardAlpha"/>
<feOffset dx="2" dy="2"/>
<feGaussianBlur stdDeviation="3.5"/>
<feComposite in2="hardAlpha" operator="out"/>
<feColorMatrix type="matrix" values="0 0 0 0 0 0 0 0 0 0 0 0 0 0 0 0 0 0 0.2 0"/>
<feBlend mode="normal" in2="BackgroundImageFix" result="effect1_dropShadow_77_1131"/>
<feBlend mode="normal" in="SourceGraphic" in2="effect1_dropShadow_77_1131" result="shape"/>
</filter>
</defs>
</svg>
