<svg width="23" height="21" viewBox="0 0 23 21" fill="none" xmlns="http://www.w3.org/2000/svg">
<path d="M13.8249 0.103116C13.2859 0.329469 12.9356 0.854607 12.9356 1.44312V5.06477H7.90509C3.53933 5.06477 0 8.63209 0 13.0324C0 18.1615 3.6606 20.4522 4.50051 20.914C4.6128 20.9774 4.73856 21 4.86433 21C5.3539 21 5.74916 20.5971 5.74916 20.1082C5.74916 19.7686 5.55602 19.4563 5.30899 19.2254C4.88678 18.827 4.31187 18.0303 4.31187 16.6586C4.31187 14.2592 6.24323 12.3126 8.62374 12.3126H12.9356V15.9342C12.9356 16.5182 13.2859 17.0479 13.8249 17.2742C14.3639 17.5006 14.9793 17.3738 15.3925 16.9619L22.5789 9.71858C23.1404 9.1527 23.1404 8.23371 22.5789 7.66782L15.3925 0.424537C14.9793 0.00804816 14.3639 -0.114182 13.8249 0.11217V0.103116Z" fill="#7AAAF2"/>
</svg>
