<svg width="13" height="24" viewBox="0 0 13 24" fill="none" xmlns="http://www.w3.org/2000/svg">
<path d="M13 0.474725V23.1033C12.8958 23.4022 12.3542 24 11.0208 24C9.6875 24 9.21528 23.4022 9.14583 23.1033L10.3958 11.9736L8 10.7604C8 6.45626 9.59722 2.10989 10.3958 0.474725C10.5694 0.316484 11.125 0 11.9583 0C12.7917 0 13 0.316484 13 0.474725Z" fill="#023F30"/>
<path d="M7 5.68889C7 7.46667 5.57812 8.41481 4.70312 8.41481L5.14062 13.3926C5.25 14.1037 5.35938 21.3333 5.35938 21.8074C5.35938 22.2815 4.92188 24 3.60938 24C1.96875 24 1.85937 22.2815 1.85937 21.8074C1.85937 21.3333 1.96875 13.9852 2.07812 13.3926L2.51562 8.41481C1.64062 8.41481 0 7.22963 0 5.68889C0 4.5037 0.328125 1.24444 0.65625 0H1.20312L1.42187 4.85926H2.07812L2.29687 0H2.95312L3.28125 4.85926H3.9375L4.26562 0H4.92187V4.85926H5.57812L5.79687 0H6.34375C6.67187 1.24444 7 4.5037 7 5.68889Z" fill="#023F30"/>
</svg>
