<svg width="26" height="26" viewBox="0 0 26 26" fill="none" xmlns="http://www.w3.org/2000/svg">
<path d="M7.66667 6.33333V1M18.3333 6.33333V1M6.33333 11.6667H19.6667M3.66667 25H22.3333C23.0406 25 23.7189 24.719 24.219 24.219C24.719 23.7189 25 23.0406 25 22.3333V6.33333C25 5.62609 24.719 4.94781 24.219 4.44772C23.7189 3.94762 23.0406 3.66667 22.3333 3.66667H3.66667C2.95942 3.66667 2.28115 3.94762 1.78105 4.44772C1.28095 4.94781 1 5.62609 1 6.33333V22.3333C1 23.0406 1.28095 23.7189 1.78105 24.219C2.28115 24.719 2.95942 25 3.66667 25Z" stroke="#023F30" stroke-width="2" stroke-linecap="round" stroke-linejoin="round"/>
</svg>
