<svg width="58" height="75" viewBox="0 0 58 75" fill="none" xmlns="http://www.w3.org/2000/svg">
<path d="M29 47.0833C32.5214 43.8194 35.3696 41.1285 37.5446 39.0104C39.7196 36.8924 41.394 35.0694 42.5679 33.5417C43.7417 32.0139 44.5357 30.6771 44.95 29.5312C45.3643 28.3854 45.5714 27.1528 45.5714 25.8333C45.5714 23.3333 44.6738 21.1806 42.8786 19.375C41.0833 17.5694 38.9429 16.6667 36.4571 16.6667C35.0071 16.6667 33.6089 16.9618 32.2625 17.5521C30.9161 18.1424 29.8286 18.9583 29 20C28.1714 18.9583 27.1012 18.1424 25.7893 17.5521C24.4774 16.9618 23.0619 16.6667 21.5429 16.6667C19.0571 16.6667 16.9167 17.5694 15.1214 19.375C13.3262 21.1806 12.4286 23.3333 12.4286 25.8333C12.4286 27.1528 12.6185 28.3681 12.9982 29.4792C13.378 30.5903 14.1548 31.9097 15.3286 33.4375C16.5024 34.9653 18.1595 36.7882 20.3 38.9062C22.4405 41.0243 25.3405 43.75 29 47.0833ZM0 75V8.33333C0 6.04167 0.81131 4.07986 2.43393 2.44792C4.05655 0.815972 6.00714 0 8.28571 0H49.7143C51.9929 0 53.9435 0.815972 55.5661 2.44792C57.1887 4.07986 58 6.04167 58 8.33333V75L29 62.5L0 75ZM8.28571 62.2917L29 53.3333L49.7143 62.2917V8.33333H8.28571V62.2917Z" fill="#FAC71E"/>
</svg>
