<svg width="26" height="26" viewBox="0 0 26 26" fill="none" xmlns="http://www.w3.org/2000/svg">
<path d="M15.8616 10.3333H22.298C22.7585 10.3333 23.2114 10.4495 23.6136 10.6708C24.0159 10.8921 24.3541 11.2112 24.5963 11.5978C24.8385 11.9844 24.9765 12.4257 24.9972 12.8797C25.018 13.3337 24.9209 13.7854 24.715 14.192L19.9863 23.5253C19.7619 23.9686 19.4167 24.3414 18.9895 24.6019C18.5624 24.8624 18.0701 25.0002 17.568 25H12.1408C11.9206 25 11.7003 24.9733 11.4855 24.92L6.40421 23.6667M15.8616 10.3333V3.66667C15.8616 2.95942 15.5769 2.28115 15.0701 1.78105C14.5634 1.28095 13.8761 1 13.1595 1H13.0311C12.3556 1 11.8084 1.54 11.8084 2.20667C11.8084 3.15867 11.5233 4.08933 10.987 4.88133L6.40421 11.6667V23.6667M15.8616 10.3333H13.1595ZM6.40421 23.6667H3.7021C2.98546 23.6667 2.29817 23.3857 1.79143 22.8856C1.28469 22.3855 1 21.7072 1 21V13C1 12.2928 1.28469 11.6145 1.79143 11.1144C2.29817 10.6143 2.98546 10.3333 3.7021 10.3333H7.07973" fill="#7AAAF1"/>
<path d="M15.8616 10.3333H22.298C22.7585 10.3333 23.2114 10.4495 23.6136 10.6708C24.0159 10.8921 24.3541 11.2112 24.5963 11.5978C24.8385 11.9844 24.9765 12.4257 24.9972 12.8797C25.018 13.3337 24.9209 13.7854 24.715 14.192L19.9863 23.5253C19.7619 23.9686 19.4167 24.3414 18.9895 24.6019C18.5624 24.8624 18.0701 25.0002 17.568 25H12.1408C11.9206 25 11.7003 24.9733 11.4855 24.92L6.40421 23.6667M15.8616 10.3333V3.66667C15.8616 2.95942 15.5769 2.28115 15.0701 1.78105C14.5634 1.28095 13.8761 1 13.1595 1H13.0311C12.3556 1 11.8084 1.54 11.8084 2.20667C11.8084 3.15867 11.5233 4.08933 10.987 4.88133L6.40421 11.6667V23.6667M15.8616 10.3333H13.1595M6.40421 23.6667H3.7021C2.98546 23.6667 2.29817 23.3857 1.79143 22.8856C1.28469 22.3855 1 21.7072 1 21V13C1 12.2928 1.28469 11.6145 1.79143 11.1144C2.29817 10.6143 2.98546 10.3333 3.7021 10.3333H7.07973" stroke="#7AAAF1" stroke-width="1.5" stroke-linecap="round" stroke-linejoin="round"/>
</svg>
