<svg width="285" height="117" viewBox="0 0 285 117" fill="none" xmlns="http://www.w3.org/2000/svg">
<g filter="url(#filter0_d_68_1126)">
<path d="M43 94.7336V106.234H89V94.7336" stroke="white" stroke-width="2" stroke-linecap="round"/>
<path d="M9.32507 54.7335H85M93.5 54.7335H103M19 40.2336V38.2335C15.8334 36.4002 10.8 30.5335 16 21.7335C17.1667 19.641 21.2 15.9115 28 17.7335C28.5 16.4002 30.3 13.7336 33.5 13.7336C34.8522 13.7336 37.8453 14.2336 39 16.2336C40.3334 15.7336 42 15.2336 44.5 16.2336L47.5 19.2336C50.1667 18.9002 55.7 19.3336 56.5 23.7336C57.3 28.1336 50.8334 36.4003 47.5 40.2336C51.1667 34.7065 60.8 24.7684 70 27.2336C70 30.7336 69.4 37.8336 65 40.2336" stroke="white" stroke-width="2" stroke-linecap="round"/>
<path d="M55.5 21.2336C56.2358 16.5734 60.1661 9.51282 70 9.13541M106 40.2336C102.8 24.2336 89.3333 14.7336 83 11.7336C77.8221 9.72586 73.5306 8.99991 70 9.13541M87.5 40.2336C82 37.1681 70.8 27.0569 70 9.13541M70 9.13541C73 6.76936 80.6 3.45688 87 9.13541C90.1667 8.00147 97 7.33358 99 13.7336C102.167 12.9002 108.8 12.6336 110 18.2336C111.2 23.8336 109.833 27.9002 109 29.2336L99 39.7336M99 39.7336C102.333 34.4002 111.4 24.6336 121 26.2336C121 29.2336 120.3 36.2336 117.5 40.2336M99 39.7336L84.5 21.2336M56 40.2336L60 35.2336" stroke="white" stroke-width="2" stroke-linecap="round"/>
<path d="M125 40.2336C125 85.4336 86 98.0669 66.5 98.7336C19.7 98.7336 7.33333 59.7336 7 40.2336H125Z" stroke="white" stroke-width="2" stroke-linecap="round"/>
<path d="M137.769 47L269.769 47C271.513 47.3125 275 48.9375 275 52.9375C275 56.9375 271.513 58.3542 269.769 58.5625L204.846 54.8125L197.769 62C172.662 62 147.308 57.2083 137.769 54.8125C136.846 54.2917 135 52.625 135 50.125C135 47.625 136.846 47 137.769 47Z" stroke="white" stroke-width="2"/>
<path d="M168.185 67C178.556 67 184.086 71.4687 184.086 74.2187L213.123 72.8437C217.272 72.5 259.444 72.1562 262.21 72.1562C264.975 72.1562 275 73.5312 275 77.6562C275 82.8125 264.975 83.1562 262.21 83.1562C259.444 83.1562 216.58 82.8125 213.123 82.4687L184.086 81.0937C184.086 83.8437 177.173 89 168.185 89C161.272 89 142.259 87.9687 135 86.9375L135 85.2188L163.346 84.5312L163.346 82.4687L135 81.7813L135 79.7188L163.346 78.6875L163.346 76.625L135 75.5938L135 73.5313L163.346 73.5312L163.346 71.4687L135 70.7813L135 69.0625C142.259 68.0313 161.272 67 168.185 67Z" stroke="white" stroke-width="2"/>
<path d="M137.144 39C136.888 39 136.68 38.9253 136.52 38.776C136.371 38.616 136.296 38.4187 136.296 38.184V28.616C136.296 28.3813 136.376 28.1893 136.536 28.04C136.696 27.88 136.888 27.8 137.112 27.8H142.52C142.755 27.8 142.947 27.8747 143.096 28.024C143.256 28.1733 143.336 28.36 143.336 28.584C143.336 28.7867 143.256 28.9627 143.096 29.112C142.947 29.2613 142.755 29.336 142.52 29.336H137.848L137.96 29.176V32.744L137.864 32.552H141.8C142.035 32.552 142.227 32.6267 142.376 32.776C142.536 32.9253 142.616 33.112 142.616 33.336C142.616 33.5387 142.536 33.7147 142.376 33.864C142.227 34.0133 142.035 34.088 141.8 34.088H137.832L137.96 33.96V38.184C137.96 38.4187 137.88 38.616 137.72 38.776C137.56 38.9253 137.368 39 137.144 39ZM152.965 34.792C152.965 35.6453 152.779 36.4027 152.405 37.064C152.032 37.7147 151.525 38.2267 150.885 38.6C150.245 38.9733 149.525 39.16 148.725 39.16C147.925 39.16 147.205 38.9733 146.565 38.6C145.925 38.2267 145.413 37.7147 145.029 37.064C144.656 36.4027 144.469 35.6453 144.469 34.792C144.469 33.928 144.656 33.1707 145.029 32.52C145.413 31.8587 145.925 31.3413 146.565 30.968C147.205 30.584 147.925 30.392 148.725 30.392C149.525 30.392 150.245 30.584 150.885 30.968C151.525 31.3413 152.032 31.8587 152.405 32.52C152.779 33.1707 152.965 33.928 152.965 34.792ZM151.365 34.792C151.365 34.2053 151.248 33.6987 151.013 33.272C150.779 32.8347 150.459 32.4933 150.053 32.248C149.659 31.992 149.216 31.864 148.725 31.864C148.235 31.864 147.787 31.992 147.381 32.248C146.976 32.4933 146.656 32.8347 146.421 33.272C146.187 33.6987 146.069 34.2053 146.069 34.792C146.069 35.3573 146.187 35.8587 146.421 36.296C146.656 36.7333 146.976 37.0747 147.381 37.32C147.787 37.5653 148.235 37.688 148.725 37.688C149.216 37.688 149.659 37.5653 150.053 37.32C150.459 37.0747 150.779 36.7333 151.013 36.296C151.248 35.8587 151.365 35.3573 151.365 34.792ZM162.84 34.792C162.84 35.6453 162.654 36.4027 162.28 37.064C161.907 37.7147 161.4 38.2267 160.76 38.6C160.12 38.9733 159.4 39.16 158.6 39.16C157.8 39.16 157.08 38.9733 156.44 38.6C155.8 38.2267 155.288 37.7147 154.904 37.064C154.531 36.4027 154.344 35.6453 154.344 34.792C154.344 33.928 154.531 33.1707 154.904 32.52C155.288 31.8587 155.8 31.3413 156.44 30.968C157.08 30.584 157.8 30.392 158.6 30.392C159.4 30.392 160.12 30.584 160.76 30.968C161.4 31.3413 161.907 31.8587 162.28 32.52C162.654 33.1707 162.84 33.928 162.84 34.792ZM161.24 34.792C161.24 34.2053 161.123 33.6987 160.888 33.272C160.654 32.8347 160.334 32.4933 159.928 32.248C159.534 31.992 159.091 31.864 158.6 31.864C158.11 31.864 157.662 31.992 157.256 32.248C156.851 32.4933 156.531 32.8347 156.296 33.272C156.062 33.6987 155.944 34.2053 155.944 34.792C155.944 35.3573 156.062 35.8587 156.296 36.296C156.531 36.7333 156.851 37.0747 157.256 37.32C157.662 37.5653 158.11 37.688 158.6 37.688C159.091 37.688 159.534 37.5653 159.928 37.32C160.334 37.0747 160.654 36.7333 160.888 36.296C161.123 35.8587 161.24 35.3573 161.24 34.792ZM171.547 27.16C171.782 27.16 171.974 27.2347 172.123 27.384C172.273 27.5333 172.347 27.7307 172.347 27.976V38.184C172.347 38.4187 172.273 38.616 172.123 38.776C171.974 38.9253 171.782 39 171.547 39C171.323 39 171.131 38.9253 170.971 38.776C170.822 38.616 170.747 38.4187 170.747 38.184V37.032L171.083 37.048C171.083 37.24 171.003 37.4587 170.843 37.704C170.694 37.9387 170.486 38.168 170.219 38.392C169.953 38.616 169.638 38.8027 169.275 38.952C168.913 39.0907 168.523 39.16 168.107 39.16C167.371 39.16 166.71 38.9733 166.123 38.6C165.537 38.216 165.073 37.6987 164.731 37.048C164.39 36.3867 164.219 35.6293 164.219 34.776C164.219 33.9227 164.39 33.1707 164.731 32.52C165.073 31.8587 165.531 31.3413 166.107 30.968C166.694 30.584 167.345 30.392 168.059 30.392C168.507 30.392 168.923 30.4667 169.307 30.616C169.702 30.7653 170.043 30.9573 170.331 31.192C170.619 31.4267 170.843 31.6773 171.003 31.944C171.163 32.2 171.243 32.4453 171.243 32.68L170.747 32.728V27.976C170.747 27.7413 170.822 27.5493 170.971 27.4C171.131 27.24 171.323 27.16 171.547 27.16ZM168.283 37.688C168.795 37.688 169.238 37.56 169.611 37.304C169.995 37.048 170.294 36.7013 170.507 36.264C170.721 35.8267 170.827 35.3307 170.827 34.776C170.827 34.2213 170.721 33.7253 170.507 33.288C170.294 32.8507 169.995 32.504 169.611 32.248C169.227 31.992 168.785 31.864 168.283 31.864C167.793 31.864 167.355 31.992 166.971 32.248C166.598 32.504 166.299 32.8507 166.075 33.288C165.862 33.7253 165.755 34.2213 165.755 34.776C165.755 35.3307 165.862 35.8267 166.075 36.264C166.299 36.7013 166.598 37.048 166.971 37.304C167.355 37.56 167.793 37.688 168.283 37.688ZM180.066 39C179.81 39 179.602 38.9253 179.442 38.776C179.293 38.616 179.218 38.4187 179.218 38.184V28.616C179.218 28.3813 179.298 28.1893 179.458 28.04C179.618 27.88 179.81 27.8 180.034 27.8H185.442C185.677 27.8 185.869 27.8747 186.018 28.024C186.178 28.1733 186.258 28.36 186.258 28.584C186.258 28.7867 186.178 28.9627 186.018 29.112C185.869 29.2613 185.677 29.336 185.442 29.336H180.77L180.882 29.176V32.744L180.786 32.552H184.722C184.957 32.552 185.149 32.6267 185.298 32.776C185.458 32.9253 185.538 33.112 185.538 33.336C185.538 33.5387 185.458 33.7147 185.298 33.864C185.149 34.0133 184.957 34.088 184.722 34.088H180.754L180.882 33.96V38.184C180.882 38.4187 180.802 38.616 180.642 38.776C180.482 38.9253 180.29 39 180.066 39ZM195.887 34.792C195.887 35.6453 195.7 36.4027 195.327 37.064C194.954 37.7147 194.447 38.2267 193.807 38.6C193.167 38.9733 192.447 39.16 191.647 39.16C190.847 39.16 190.127 38.9733 189.487 38.6C188.847 38.2267 188.335 37.7147 187.951 37.064C187.578 36.4027 187.391 35.6453 187.391 34.792C187.391 33.928 187.578 33.1707 187.951 32.52C188.335 31.8587 188.847 31.3413 189.487 30.968C190.127 30.584 190.847 30.392 191.647 30.392C192.447 30.392 193.167 30.584 193.807 30.968C194.447 31.3413 194.954 31.8587 195.327 32.52C195.7 33.1707 195.887 33.928 195.887 34.792ZM194.287 34.792C194.287 34.2053 194.17 33.6987 193.935 33.272C193.7 32.8347 193.38 32.4933 192.975 32.248C192.58 31.992 192.138 31.864 191.647 31.864C191.156 31.864 190.708 31.992 190.303 32.248C189.898 32.4933 189.578 32.8347 189.343 33.272C189.108 33.6987 188.991 34.2053 188.991 34.792C188.991 35.3573 189.108 35.8587 189.343 36.296C189.578 36.7333 189.898 37.0747 190.303 37.32C190.708 37.5653 191.156 37.688 191.647 37.688C192.138 37.688 192.58 37.5653 192.975 37.32C193.38 37.0747 193.7 36.7333 193.935 36.296C194.17 35.8587 194.287 35.3573 194.287 34.792ZM198.498 39C198.263 39 198.071 38.9253 197.922 38.776C197.773 38.616 197.698 38.4187 197.698 38.184V31.4C197.698 31.1653 197.773 30.9733 197.922 30.824C198.071 30.664 198.263 30.584 198.498 30.584C198.722 30.584 198.909 30.664 199.058 30.824C199.218 30.9733 199.298 31.1653 199.298 31.4V33.192L199.138 32.504C199.223 32.2053 199.351 31.928 199.522 31.672C199.703 31.416 199.917 31.192 200.162 31C200.407 30.808 200.679 30.6587 200.978 30.552C201.287 30.4453 201.607 30.392 201.938 30.392C202.215 30.392 202.455 30.4667 202.658 30.616C202.861 30.7653 202.962 30.952 202.962 31.176C202.962 31.464 202.887 31.6773 202.738 31.816C202.589 31.944 202.423 32.008 202.242 32.008C202.082 32.008 201.927 31.976 201.778 31.912C201.629 31.8373 201.453 31.8 201.25 31.8C201.026 31.8 200.797 31.8587 200.562 31.976C200.327 32.0933 200.114 32.2693 199.922 32.504C199.73 32.728 199.575 32.9947 199.458 33.304C199.351 33.6133 199.298 33.96 199.298 34.344V38.184C199.298 38.4187 199.218 38.616 199.058 38.776C198.909 38.9253 198.722 39 198.498 39ZM212.663 39C212.407 39 212.199 38.9253 212.039 38.776C211.889 38.616 211.815 38.4187 211.815 38.184V28.6H213.527V38.184C213.527 38.4187 213.441 38.616 213.271 38.776C213.111 38.9253 212.908 39 212.663 39ZM209.031 29.336C208.807 29.336 208.615 29.2667 208.455 29.128C208.295 28.9787 208.215 28.7867 208.215 28.552C208.215 28.328 208.295 28.1467 208.455 28.008C208.615 27.8693 208.807 27.8 209.031 27.8H216.311C216.535 27.8 216.721 27.8747 216.871 28.024C217.031 28.1627 217.111 28.344 217.111 28.568C217.111 28.8027 217.031 28.9893 216.871 29.128C216.721 29.2667 216.535 29.336 216.311 29.336H209.031ZM222.985 30.44C223.721 30.44 224.292 30.6 224.697 30.92C225.102 31.2293 225.385 31.6507 225.545 32.184C225.716 32.7173 225.801 33.304 225.801 33.944V38.184C225.801 38.4187 225.721 38.616 225.561 38.776C225.412 38.9253 225.225 39 225.001 39C224.766 39 224.574 38.9253 224.425 38.776C224.276 38.616 224.201 38.4187 224.201 38.184V33.944C224.201 33.5707 224.148 33.2293 224.041 32.92C223.945 32.6107 223.769 32.3653 223.513 32.184C223.268 32.0027 222.921 31.912 222.473 31.912C222.057 31.912 221.684 32.0027 221.353 32.184C221.033 32.3653 220.782 32.6107 220.601 32.92C220.43 33.2293 220.345 33.5707 220.345 33.944V38.184C220.345 38.4187 220.265 38.616 220.105 38.776C219.956 38.9253 219.769 39 219.545 39C219.31 39 219.118 38.9253 218.969 38.776C218.82 38.616 218.745 38.4187 218.745 38.184V27.976C218.745 27.7413 218.82 27.5493 218.969 27.4C219.118 27.24 219.31 27.16 219.545 27.16C219.769 27.16 219.956 27.24 220.105 27.4C220.265 27.5493 220.345 27.7413 220.345 27.976V32.344L220.057 32.504C220.132 32.2693 220.254 32.0293 220.425 31.784C220.606 31.5387 220.825 31.3147 221.081 31.112C221.348 30.9093 221.641 30.7493 221.961 30.632C222.281 30.504 222.622 30.44 222.985 30.44ZM236.09 34.792C236.09 35.6453 235.904 36.4027 235.53 37.064C235.157 37.7147 234.65 38.2267 234.01 38.6C233.37 38.9733 232.65 39.16 231.85 39.16C231.05 39.16 230.33 38.9733 229.69 38.6C229.05 38.2267 228.538 37.7147 228.154 37.064C227.781 36.4027 227.594 35.6453 227.594 34.792C227.594 33.928 227.781 33.1707 228.154 32.52C228.538 31.8587 229.05 31.3413 229.69 30.968C230.33 30.584 231.05 30.392 231.85 30.392C232.65 30.392 233.37 30.584 234.01 30.968C234.65 31.3413 235.157 31.8587 235.53 32.52C235.904 33.1707 236.09 33.928 236.09 34.792ZM234.49 34.792C234.49 34.2053 234.373 33.6987 234.138 33.272C233.904 32.8347 233.584 32.4933 233.178 32.248C232.784 31.992 232.341 31.864 231.85 31.864C231.36 31.864 230.912 31.992 230.506 32.248C230.101 32.4933 229.781 32.8347 229.546 33.272C229.312 33.6987 229.194 34.2053 229.194 34.792C229.194 35.3573 229.312 35.8587 229.546 36.296C229.781 36.7333 230.101 37.0747 230.506 37.32C230.912 37.5653 231.36 37.688 231.85 37.688C232.341 37.688 232.784 37.5653 233.178 37.32C233.584 37.0747 233.904 36.7333 234.138 36.296C234.373 35.8587 234.49 35.3573 234.49 34.792ZM244.173 30.584C244.397 30.584 244.584 30.664 244.733 30.824C244.893 30.9733 244.973 31.1653 244.973 31.4V35.608C244.973 36.7173 244.664 37.5867 244.045 38.216C243.427 38.8347 242.552 39.144 241.421 39.144C240.301 39.144 239.432 38.8347 238.813 38.216C238.205 37.5867 237.901 36.7173 237.901 35.608V31.4C237.901 31.1653 237.976 30.9733 238.125 30.824C238.275 30.664 238.467 30.584 238.701 30.584C238.925 30.584 239.112 30.664 239.261 30.824C239.421 30.9733 239.501 31.1653 239.501 31.4V35.608C239.501 36.3013 239.661 36.8187 239.981 37.16C240.312 37.5013 240.792 37.672 241.421 37.672C242.061 37.672 242.547 37.5013 242.877 37.16C243.208 36.8187 243.373 36.3013 243.373 35.608V31.4C243.373 31.1653 243.448 30.9733 243.597 30.824C243.747 30.664 243.939 30.584 244.173 30.584ZM250.546 30.392C251.005 30.392 251.426 30.4667 251.81 30.616C252.194 30.7653 252.525 30.9573 252.802 31.192C253.09 31.416 253.314 31.6507 253.474 31.896C253.634 32.1413 253.714 32.3547 253.714 32.536L253.346 32.552V31.272C253.346 31.048 253.421 30.856 253.57 30.696C253.719 30.536 253.911 30.456 254.146 30.456C254.381 30.456 254.573 30.536 254.722 30.696C254.871 30.8453 254.946 31.0373 254.946 31.272V38.328C254.946 39.2347 254.754 39.9707 254.37 40.536C253.986 41.112 253.474 41.5333 252.834 41.8C252.205 42.0667 251.511 42.2 250.754 42.2C250.487 42.2 250.173 42.1627 249.81 42.088C249.447 42.024 249.111 41.944 248.802 41.848C248.503 41.752 248.295 41.656 248.178 41.56C247.933 41.432 247.767 41.2827 247.682 41.112C247.607 40.9413 247.607 40.7707 247.682 40.6C247.789 40.3653 247.933 40.2213 248.114 40.168C248.295 40.1147 248.503 40.1307 248.738 40.216C248.845 40.248 249.01 40.3067 249.234 40.392C249.458 40.4773 249.709 40.552 249.986 40.616C250.263 40.6907 250.525 40.728 250.77 40.728C251.623 40.728 252.263 40.5307 252.69 40.136C253.127 39.7413 253.346 39.2027 253.346 38.52V37.08L253.522 37.192C253.49 37.416 253.389 37.6453 253.218 37.88C253.058 38.104 252.845 38.312 252.578 38.504C252.311 38.696 252.002 38.856 251.65 38.984C251.309 39.1013 250.957 39.16 250.594 39.16C249.837 39.16 249.159 38.9733 248.562 38.6C247.965 38.216 247.49 37.6987 247.138 37.048C246.786 36.3867 246.61 35.6293 246.61 34.776C246.61 33.9227 246.786 33.1707 247.138 32.52C247.49 31.8587 247.959 31.3413 248.546 30.968C249.143 30.584 249.81 30.392 250.546 30.392ZM250.786 31.864C250.263 31.864 249.805 31.992 249.41 32.248C249.015 32.504 248.706 32.8507 248.482 33.288C248.258 33.7253 248.146 34.2213 248.146 34.776C248.146 35.3307 248.258 35.8267 248.482 36.264C248.706 36.7013 249.015 37.048 249.41 37.304C249.805 37.56 250.263 37.688 250.786 37.688C251.309 37.688 251.767 37.5653 252.162 37.32C252.557 37.064 252.866 36.7173 253.09 36.28C253.314 35.832 253.426 35.3307 253.426 34.776C253.426 34.2213 253.314 33.7253 253.09 33.288C252.866 32.84 252.557 32.4933 252.162 32.248C251.767 31.992 251.309 31.864 250.786 31.864ZM261.407 30.44C262.143 30.44 262.714 30.6 263.119 30.92C263.524 31.2293 263.807 31.6507 263.967 32.184C264.138 32.7173 264.223 33.304 264.223 33.944V38.184C264.223 38.4187 264.143 38.616 263.983 38.776C263.834 38.9253 263.647 39 263.423 39C263.188 39 262.996 38.9253 262.847 38.776C262.698 38.616 262.623 38.4187 262.623 38.184V33.944C262.623 33.5707 262.57 33.2293 262.463 32.92C262.367 32.6107 262.191 32.3653 261.935 32.184C261.69 32.0027 261.343 31.912 260.895 31.912C260.479 31.912 260.106 32.0027 259.775 32.184C259.455 32.3653 259.204 32.6107 259.023 32.92C258.852 33.2293 258.767 33.5707 258.767 33.944V38.184C258.767 38.4187 258.687 38.616 258.527 38.776C258.378 38.9253 258.191 39 257.967 39C257.732 39 257.54 38.9253 257.391 38.776C257.242 38.616 257.167 38.4187 257.167 38.184V27.976C257.167 27.7413 257.242 27.5493 257.391 27.4C257.54 27.24 257.732 27.16 257.967 27.16C258.191 27.16 258.378 27.24 258.527 27.4C258.687 27.5493 258.767 27.7413 258.767 27.976V32.344L258.479 32.504C258.554 32.2693 258.676 32.0293 258.847 31.784C259.028 31.5387 259.247 31.3147 259.503 31.112C259.77 30.9093 260.063 30.7493 260.383 30.632C260.703 30.504 261.044 30.44 261.407 30.44ZM266.336 30.68H270.096C270.309 30.68 270.485 30.7547 270.624 30.904C270.773 31.0427 270.848 31.2187 270.848 31.432C270.848 31.6347 270.773 31.8053 270.624 31.944C270.485 32.0827 270.309 32.152 270.096 32.152H266.336C266.123 32.152 265.941 32.0827 265.792 31.944C265.653 31.7947 265.584 31.6187 265.584 31.416C265.584 31.2027 265.653 31.0267 265.792 30.888C265.941 30.7493 266.123 30.68 266.336 30.68ZM268.016 28.6C268.251 28.6 268.443 28.68 268.592 28.84C268.741 28.9893 268.816 29.1813 268.816 29.416V36.84C268.816 37.032 268.848 37.1867 268.912 37.304C268.976 37.4213 269.061 37.5013 269.168 37.544C269.285 37.5867 269.403 37.608 269.52 37.608C269.637 37.608 269.739 37.5867 269.824 37.544C269.92 37.5013 270.032 37.48 270.16 37.48C270.288 37.48 270.405 37.5387 270.512 37.656C270.619 37.7733 270.672 37.9333 270.672 38.136C270.672 38.392 270.533 38.6 270.256 38.76C269.979 38.92 269.68 39 269.36 39C269.179 39 268.965 38.984 268.72 38.952C268.475 38.92 268.235 38.84 268 38.712C267.776 38.584 267.589 38.3813 267.44 38.104C267.291 37.816 267.216 37.416 267.216 36.904V29.416C267.216 29.1813 267.291 28.9893 267.44 28.84C267.6 28.68 267.792 28.6 268.016 28.6Z" fill="white"/>
</g>
<defs>
<filter id="filter0_d_68_1126" x="0.982759" y="0.000209808" width="284.017" height="116.233" filterUnits="userSpaceOnUse" color-interpolation-filters="sRGB">
<feFlood flood-opacity="0" result="BackgroundImageFix"/>
<feColorMatrix in="SourceAlpha" type="matrix" values="0 0 0 0 0 0 0 0 0 0 0 0 0 0 0 0 0 0 127 0" result="hardAlpha"/>
<feOffset dx="2" dy="2"/>
<feGaussianBlur stdDeviation="3.5"/>
<feComposite in2="hardAlpha" operator="out"/>
<feColorMatrix type="matrix" values="0 0 0 0 0 0 0 0 0 0 0 0 0 0 0 0 0 0 0.2 0"/>
<feBlend mode="normal" in2="BackgroundImageFix" result="effect1_dropShadow_68_1126"/>
<feBlend mode="normal" in="SourceGraphic" in2="effect1_dropShadow_68_1126" result="shape"/>
</filter>
</defs>
</svg>
